<svg xmlns="http://www.w3.org/2000/svg" width="14.684" height="13.05">
    <path data-name="Icon awesome-edit" d="m10.263 2.118 2.3 2.3a.249.249 0 0 1 0 .352L7 10.337l-2.366.263a.5.5 0 0 1-.548-.548l.263-2.366 5.562-5.568a.249.249 0 0 1 .352 0zm4.13-.584L13.149.293a1 1 0 0 0-1.407 0l-.9.9a.249.249 0 0 0 0 .352l2.3 2.3a.249.249 0 0 0 .352 0l.9-.9a1 1 0 0 0 0-1.407zM9.789 8.823v2.6H1.632V3.261H7.49a.313.313 0 0 0 .217-.089l1.02-1.02a.306.306 0 0 0-.217-.523H1.224A1.224 1.224 0 0 0 0 2.853v8.973a1.224 1.224 0 0 0 1.224 1.224H10.2a1.224 1.224 0 0 0 1.224-1.224V7.803a.306.306 0 0 0-.523-.217l-1.02 1.02a.313.313 0 0 0-.092.217z"/>
</svg>
