<svg xmlns="http://www.w3.org/2000/svg" width="12.959" height="12.098">
    <path data-name="Path 3996" d="M8.732 3.443A1.443 1.443 0 0 0 7.86 5.55l.872-.872z"/>
    <path data-name="Path 3997" d="M8.909 11.338h-.488l-.151-.911H4.69l-.152.911H4.05a.38.38 0 1 0 0 .759h4.859a.38.38 0 0 0 0-.759z"/>
    <path data-name="Path 3998" d="M8.396 6.086a1.443 1.443 0 0 0 2.107-.872H9.269z"/>
    <path data-name="Path 3999" d="M11.82 0H6.859v1.19a.38.38 0 0 1-.759 0V0H1.139A1.14 1.14 0 0 0 0 1.139v7.39a1.14 1.14 0 0 0 1.139 1.139H11.82a1.14 1.14 0 0 0 1.139-1.139v-7.39A1.14 1.14 0 0 0 11.82 0zM5.644 6.859a.38.38 0 0 1-.38.38H2.025a.38.38 0 0 1-.38-.38v-4.05a.38.38 0 0 1 .759 0v3.67h.861V4.024a.38.38 0 0 1 .759 0v2.455h.861v-1.24a.38.38 0 0 1 .759 0zm3.467.177a2.2 2.2 0 1 1 2.2-2.2 2.204 2.204 0 0 1-2.2 2.2z"/>
    <path data-name="Path 4000" d="M9.491 3.443v1.012h1.012a1.448 1.448 0 0 0-1.012-1.012z"/>
</svg>
