<?xml version="1.0" encoding="UTF-8"?>
<svg xmlns="http://www.w3.org/2000/svg" xmlns:xlink="http://www.w3.org/1999/xlink" width="13" height="13" viewBox="0 0 13 13" version="1.1">
<g id="surface1">
<path style=" stroke:none;fill-rule:nonzero;fill:rgb(0%,0%,0%);fill-opacity:1;" d="M 1.625 2.03125 L 1.625 0.40625 C 1.625 0.183594 1.808594 0 2.03125 0 C 2.257812 0 2.4375 0.183594 2.4375 0.40625 L 2.4375 2.03125 C 2.4375 2.257812 2.257812 2.4375 2.03125 2.4375 C 1.808594 2.4375 1.625 2.257812 1.625 2.03125 Z M 8.535156 2.4375 C 8.757812 2.4375 8.941406 2.257812 8.941406 2.03125 L 8.941406 0.40625 C 8.941406 0.183594 8.757812 0 8.535156 0 C 8.308594 0 8.128906 0.183594 8.128906 0.40625 L 8.128906 2.03125 C 8.128906 2.257812 8.308594 2.4375 8.535156 2.4375 Z M 13.003906 9.753906 C 13.003906 11.550781 11.550781 13.003906 9.753906 13.003906 C 7.957031 13.003906 6.503906 11.550781 6.503906 9.753906 C 6.503906 7.957031 7.957031 6.503906 9.753906 6.503906 C 11.550781 6.503906 13.003906 7.957031 13.003906 9.753906 Z M 12.191406 9.753906 C 12.191406 8.410156 11.097656 7.316406 9.753906 7.316406 C 8.410156 7.316406 7.316406 8.410156 7.316406 9.753906 C 7.316406 11.097656 8.410156 12.191406 9.753906 12.191406 C 11.097656 12.191406 12.191406 11.097656 12.191406 9.753906 Z M 3.25 4.878906 L 1.625 4.878906 L 1.625 6.503906 L 3.25 6.503906 Z M 1.625 8.941406 L 3.25 8.941406 L 3.25 7.316406 L 1.625 7.316406 Z M 4.0625 6.503906 L 5.691406 6.503906 L 5.691406 4.878906 L 4.0625 4.878906 Z M 4.0625 8.941406 L 5.691406 8.941406 L 5.691406 7.316406 L 4.0625 7.316406 Z M 0.8125 9.671875 L 0.8125 4.0625 L 9.753906 4.0625 L 9.753906 5.691406 L 10.566406 5.691406 L 10.566406 2.519531 C 10.566406 2.027344 10.171875 1.625 9.6875 1.625 L 9.347656 1.625 L 9.347656 2.03125 C 9.347656 2.480469 8.984375 2.84375 8.535156 2.84375 C 8.085938 2.84375 7.722656 2.480469 7.722656 2.03125 L 7.722656 1.625 L 2.84375 1.625 L 2.84375 2.03125 C 2.84375 2.480469 2.480469 2.84375 2.03125 2.84375 C 1.582031 2.84375 1.21875 2.480469 1.21875 2.03125 L 1.21875 1.625 L 0.878906 1.625 C 0.394531 1.625 0 2.027344 0 2.519531 L 0 9.671875 C 0 10.164062 0.394531 10.566406 0.878906 10.566406 L 5.691406 10.566406 L 5.691406 9.753906 L 0.878906 9.753906 C 0.84375 9.753906 0.8125 9.714844 0.8125 9.671875 Z M 8.128906 6.503906 L 8.128906 4.878906 L 6.503906 4.878906 L 6.503906 6.503906 Z M 10.972656 9.753906 L 9.753906 9.753906 L 9.753906 8.535156 C 9.753906 8.308594 9.574219 8.128906 9.347656 8.128906 C 9.125 8.128906 8.941406 8.308594 8.941406 8.535156 L 8.941406 10.160156 C 8.941406 10.386719 9.125 10.566406 9.347656 10.566406 L 10.972656 10.566406 C 11.199219 10.566406 11.378906 10.386719 11.378906 10.160156 C 11.378906 9.9375 11.199219 9.753906 10.972656 9.753906 Z M 10.972656 9.753906 "/>
</g>
</svg>
