<svg xmlns="http://www.w3.org/2000/svg" width="12.959" height="12.959">
    <path data-name="Path 4005" d="M1.905 4.955a1.143 1.143 0 0 0 1.031-1.638l1.281-1.3a1.14 1.14 0 0 0 1.528-.048L6.91 3.095a1.143 1.143 0 1 0 2.236.363l1.1-.74a1.143 1.143 0 1 0-.339-.811 1.158 1.158 0 0 0 .006.116l-1.024.688a1.141 1.141 0 0 0-1.521-.231L6.093 1.244v-.1a1.143 1.143 0 1 0-2.272.184l-1.43 1.451a1.143 1.143 0 1 0-.49 2.176z"/>
    <path data-name="Path 4006" d="M11.816 12.196V4.954h-1.525v7.242H8.766v-6.1H7.242v6.1H5.717V3.811H4.193v8.385H2.668V6.86H1.143v5.336H0v.762h12.959v-.762z"/>
</svg>
