<svg width="24" height="24" viewBox="0 0 24 24" fill="none" xmlns="http://www.w3.org/2000/svg">
<path d="M21.9859 17.5367L21.5309 20.7578C21.4298 21.4728 20.8159 22 20.1009 22H15.652C15.2692 22 14.7203 21.8483 14.4531 21.5739L11.167 18.1145L11.7664 17.5078C11.9398 17.3345 12.1853 17.255 12.4309 17.3056L14.7781 17.84V10.0833C14.7781 9.48389 15.262 9 15.8614 9C16.4609 9 16.9448 9.48389 16.9448 10.0833V14.4167H17.602C17.8259 14.4167 18.0498 14.4672 18.2448 14.5683L21.1987 16.0417C21.7548 16.3233 22.0726 16.9228 21.9859 17.5367Z" fill="#2E735F"/>
<path d="M4.77693 11.553H9.40515L10.2382 13.6912H12.1821L7.78528 3H6.39681L2 13.6912H3.94385L4.77693 11.553ZM7.09104 4.92441L8.822 9.80349H5.36009L7.09104 4.92441Z" fill="#2E735F"/>
</svg>
