<svg width="24" height="24" viewBox="0 0 24 24" fill="none" xmlns="http://www.w3.org/2000/svg">
<path d="M12 20V22C6.48 22 2 17.52 2 12C2 6.48 6.48 2 12 2C16.84 2 20.87 5.44 21.8 10H19.73C19.09 7.54 17.33 5.53 15 4.59V5C15 6.1 14.1 7 13 7H11V9C11 9.55 10.55 10 10 10H8V12H10V15H9L4.21 10.21C4.08 10.79 4 11.38 4 12C4 16.41 7.59 20 12 20Z" fill="#007068"/>
<path d="M15.0203 13.715L12.7411 11.3263C12.4266 10.9972 11.8711 10.9785 11.5005 11.2845C11.1255 11.5972 11.08 12.1121 11.3945 12.4412L15.4799 16.7087L13.7427 17.621C13.5669 17.7184 13.4521 17.8832 13.4354 18.072L13.3921 18.7092L17.2387 18.9352C17.5477 18.9474 17.9719 18.7499 18.2066 18.553L20.967 16.2773C21.412 15.9067 21.5136 15.3042 21.1997 14.8632L19.7874 12.8566C19.5188 12.4706 19.0026 12.3017 18.5118 12.4332L15.9096 13.1305C15.7327 13.1779 15.5656 13.2617 15.431 13.376L15.0203 13.715Z" fill="#007068"/>
</svg>
