<svg width="25" height="25" viewBox="0 0 25 25" fill="none" xmlns="http://www.w3.org/2000/svg">
<mask id="mask0_1808_4535" style="mask-type:alpha" maskUnits="userSpaceOnUse" x="0" y="0" width="25" height="25">
<rect x="0.0993652" y="0.0722656" width="24" height="24" fill="#D9D9D9"/>
</mask>
<g mask="url(#mask0_1808_4535)">
<path d="M8.09937 12.0723V10.0723H16.0994V12.0723H8.09937ZM8.09937 8.07227V6.07227H16.0994V8.07227H8.09937ZM6.09937 14.0723H13.5994C14.0827 14.0723 14.5327 14.1764 14.9494 14.3848C15.366 14.5931 15.716 14.8889 15.9994 15.2723L18.0994 18.0223V4.07227H6.09937V14.0723ZM6.09937 20.0723H17.1494L14.4244 16.4973C14.3244 16.3639 14.2035 16.2598 14.0619 16.1848C13.9202 16.1098 13.766 16.0723 13.5994 16.0723H6.09937V20.0723ZM18.0994 22.0723H6.09937C5.54937 22.0723 5.07853 21.8764 4.68687 21.4848C4.2952 21.0931 4.09937 20.6223 4.09937 20.0723V4.07227C4.09937 3.52227 4.2952 3.05143 4.68687 2.65977C5.07853 2.2681 5.54937 2.07227 6.09937 2.07227H18.0994C18.6494 2.07227 19.1202 2.2681 19.5119 2.65977C19.9035 3.05143 20.0994 3.52227 20.0994 4.07227V20.0723C20.0994 20.6223 19.9035 21.0931 19.5119 21.4848C19.1202 21.8764 18.6494 22.0723 18.0994 22.0723Z" fill="#0C274A"/>
</g>
</svg>
