<svg xmlns="http://www.w3.org/2000/svg" width="24" height="24">
    <path data-name="Rectangle 1470" style="fill:transparent" d="M0 0h24v24H0z"/>
    <path data-name="Icon awesome-plus-circle" d="M8.563.563a8 8 0 1 0 8 8 8 8 0 0 0-8-8zm4.645 8.9a.388.388 0 0 1-.387.387H9.853v2.968a.388.388 0 0 1-.387.387H7.659a.388.388 0 0 1-.387-.387V9.853H4.3a.388.388 0 0 1-.387-.387V7.659a.388.388 0 0 1 .387-.387h2.972V4.3a.388.388 0 0 1 .387-.387h1.807a.388.388 0 0 1 .387.387v2.972h2.968a.388.388 0 0 1 .387.387z" transform="translate(3.438 3.438)" style="fill:#fbfcfe"/>
</svg>
