<svg xmlns="http://www.w3.org/2000/svg" width="12.959" height="12.727">
    <path data-name="Path 4001" d="M6.711 4.628A1.388 1.388 0 1 1 5.323 3.24a1.389 1.389 0 0 1 1.388 1.388zm0 0"/>
    <path data-name="Path 4002" d="M12.728 3.471h.231V0H8.484a.7.7 0 0 0-.491.2L6.807 1.386h1.988a.231.231 0 0 1 .231.231V2.2a.232.232 0 0 1-.068.164l-.986.986.162.163a.707.707 0 0 0 .62.193.694.694 0 0 0 .363-.193l1.134-1.134a.232.232 0 0 1 .163-.068h.694a.694.694 0 0 0 .694-.694h.463a1.158 1.158 0 0 1-1.157 1.157V4.4h.694a.694.694 0 0 0 .693-.7.231.231 0 0 1 .231-.231zm0 0"/>
    <path data-name="Path 4003" d="M.231 7.405h10.182a.231.231 0 0 0 .231-.231v-4.4h-.136L9.443 3.843a1.155 1.155 0 0 1-1.636 0l-.162-.162a.46.46 0 0 1-.136-.33v-.023a.46.46 0 0 1 .133-.305l.917-.917v-.255H.231A.231.231 0 0 0 0 2.082v5.091a.231.231 0 0 0 .231.231zM8.1 6.479h.773a1.385 1.385 0 0 1 .847-.847V4.396h.463v1.412a.232.232 0 0 1-.185.227.925.925 0 0 0-.722.722.231.231 0 0 1-.227.185H8.1zm-2.777-3.7A1.851 1.851 0 1 1 3.472 4.63a1.851 1.851 0 0 1 1.85-1.853zm-4.86.672a.232.232 0 0 1 .185-.227.925.925 0 0 0 .722-.722.231.231 0 0 1 .227-.185h.949v.463h-.774a1.385 1.385 0 0 1-.847.847v2.009a1.385 1.385 0 0 1 .847.847h.773v.463H1.6a.231.231 0 0 1-.227-.185.925.925 0 0 0-.722-.722.232.232 0 0 1-.185-.227zm0 0"/>
    <path data-name="Path 4004" d="M.775 10.182H0v2.545h6.043a.7.7 0 0 0 .294-.065l4.009-1.869a.7.7 0 0 0 .4-.63.709.709 0 0 0-.065-.3.691.691 0 0 0-.919-.333l-3.145 1.464a1.168 1.168 0 0 1-.488.108H3.471v-.463h2.083a.694.694 0 1 0 0-1.388H2.083a1.152 1.152 0 0 0-1.089.77.231.231 0 0 1-.218.155zm0 0"/>
</svg>
