<svg width="25" height="25" viewBox="0 0 25 25" fill="none" xmlns="http://www.w3.org/2000/svg">
<mask id="mask0_142_1319" style="mask-type:alpha" maskUnits="userSpaceOnUse" x="0" y="0" width="25" height="25">
<rect x="0.45166" y="0.973755" width="24" height="24" fill="#D9D9D9"/>
</mask>
<g mask="url(#mask0_142_1319)">
<path d="M6.45166 22.9738C5.90166 22.9738 5.43083 22.7779 5.03916 22.3863C4.64749 21.9946 4.45166 21.5238 4.45166 20.9738V4.97375C4.45166 4.42375 4.64749 3.95292 5.03916 3.56125C5.43083 3.16959 5.90166 2.97375 6.45166 2.97375H14.4517L20.4517 8.97375V13.3238C20.135 13.2071 19.81 13.1196 19.4767 13.0613C19.1433 13.0029 18.8017 12.9738 18.4517 12.9738V9.97375H13.4517V4.97375H6.45166V20.9738H12.8017C12.935 21.3571 13.1017 21.7154 13.3017 22.0488C13.5017 22.3821 13.735 22.6904 14.0017 22.9738H6.45166ZM16.3517 22.4738L14.9517 21.0738L17.0517 18.9738L14.9517 16.8738L16.3517 15.4738L18.4517 17.5738L20.5517 15.4738L21.9517 16.8738L19.8767 18.9738L21.9517 21.0738L20.5517 22.4738L18.4517 20.3988L16.3517 22.4738Z" fill="#004D63"/>
</g>
</svg>
